<svg width="18" height="18" viewBox="0 0 18 18" fill="none" xmlns="http://www.w3.org/2000/svg">
<path fill-rule="evenodd" clip-rule="evenodd" d="M7.5 1H10.5C11.3284 1 12 1.67157 12 2.5V3H6V2.5C6 1.67157 6.67157 1 7.5 1ZM5 3V2.5C5 1.11929 6.11929 0 7.5 0H10.5C11.8807 0 13 1.11929 13 2.5V3H17C17.5523 3 18 3.44772 18 4V14C18 16.2091 16.2091 18 14 18H4C1.79086 18 0 16.2091 0 14V4C0 3.44772 0.447715 3 1 3H5ZM6.2929 13C6.09764 12.8048 6.09764 12.4882 6.2929 12.2929L11.2929 7.29293C11.4882 7.09767 11.8047 7.09767 12 7.29293C12.1953 7.48819 12.1953 7.80478 12 8.00004L7.00001 13C6.80475 13.1953 6.48816 13.1953 6.2929 13ZM8 7.75C8 8.16421 7.66421 8.5 7.25 8.5C6.83579 8.5 6.5 8.16421 6.5 7.75C6.5 7.33579 6.83579 7 7.25 7C7.66421 7 8 7.33579 8 7.75ZM9 7.75C9 8.7165 8.2165 9.5 7.25 9.5C6.2835 9.5 5.5 8.7165 5.5 7.75C5.5 6.7835 6.2835 6 7.25 6C8.2165 6 9 6.7835 9 7.75ZM11.25 13C11.6642 13 12 12.6642 12 12.25C12 11.8358 11.6642 11.5 11.25 11.5C10.8358 11.5 10.5 11.8358 10.5 12.25C10.5 12.6642 10.8358 13 11.25 13ZM11.25 14C12.2165 14 13 13.2165 13 12.25C13 11.2835 12.2165 10.5 11.25 10.5C10.2835 10.5 9.5 11.2835 9.5 12.25C9.5 13.2165 10.2835 14 11.25 14Z" fill="#BDBDBD"/>
</svg>
