<svg width="23" height="23" viewBox="0 0 23 23" fill="none" xmlns="http://www.w3.org/2000/svg">
<g id="Group 3">
<circle id="Ellipse 2" cx="8" cy="8" r="8" fill="#0BAEFF"/>
<path id="Vector" fill-rule="evenodd" clip-rule="evenodd" d="M10.5 5L8.68738 8.19928H9.85587V8.68568H8.44787V9.37042H9.85587V9.85701H8.44787V11.0927H7.54779V9.85701H6.13997V9.37042H7.54779V8.68568H6.13997V8.19928H7.30846L5.5 5H6.50737L7.98961 7.76426H8.01436L9.4966 5H10.5Z" fill="white"/>
<circle id="Ellipse 3" cx="15" cy="15" r="8" fill="#34DAE5"/>
<path id="Vector_2" d="M16.6667 13.6H17.5C17.5 12.4652 16.3521 11.9476 15.4167 11.8284V11H14.5833V11.8284C13.6479 11.9476 12.5 12.4652 12.5 13.6C12.5 14.6824 13.6108 15.2452 14.5833 15.372V17.36C13.98 17.2596 13.3333 16.9504 13.3333 16.4H12.5C12.5 17.4356 13.5104 18.0476 14.5833 18.1744V19H15.4167V18.172C16.3521 18.0528 17.5 17.5348 17.5 16.4C17.5 15.2652 16.3521 14.7476 15.4167 14.6284V12.64C15.9708 12.7356 16.6667 13.0164 16.6667 13.6ZM13.3333 13.6C13.3333 13.0164 14.0292 12.7356 14.5833 12.64V14.5596C14.0121 14.4584 13.3333 14.1588 13.3333 13.6ZM16.6667 16.4C16.6667 16.9836 15.9708 17.2644 15.4167 17.36V15.44C15.9708 15.5356 16.6667 15.8164 16.6667 16.4Z" fill="white"/>
</g>
</svg>
