<svg width="18" height="18" viewBox="0 0 18 18" fill="none" xmlns="http://www.w3.org/2000/svg">
<path fill-rule="evenodd" clip-rule="evenodd" d="M3.4019 10.9809V14.5981H7.01913V10.9809H3.4019ZM2.84209 9.94739C2.58048 9.94739 2.36841 10.1595 2.36841 10.4211V15.1579C2.36841 15.4195 2.58048 15.6316 2.84209 15.6316H7.57893C7.84054 15.6316 8.05262 15.4195 8.05262 15.1579V10.4211C8.05262 10.1595 7.84054 9.94739 7.57893 9.94739H2.84209Z" fill="black"/>
<path fill-rule="evenodd" clip-rule="evenodd" d="M3.4019 3.4019V7.01913H7.01913V3.4019H3.4019ZM2.84209 2.36841C2.58048 2.36841 2.36841 2.58048 2.36841 2.84209V7.57893C2.36841 7.84054 2.58048 8.05262 2.84209 8.05262H7.57893C7.84054 8.05262 8.05262 7.84054 8.05262 7.57893V2.84209C8.05262 2.58048 7.84054 2.36841 7.57893 2.36841H2.84209Z" fill="black"/>
<path fill-rule="evenodd" clip-rule="evenodd" d="M10.9808 3.4019V7.01913H14.598V3.4019H10.9808ZM10.4209 2.36841C10.1593 2.36841 9.94727 2.58048 9.94727 2.84209V7.57893C9.94727 7.84054 10.1593 8.05262 10.4209 8.05262H15.1578C15.4194 8.05262 15.6315 7.84054 15.6315 7.57893V2.84209C15.6315 2.58048 15.4194 2.36841 15.1578 2.36841H10.4209Z" fill="black"/>
<path d="M9.94727 9.94739H11.842V11.8421H9.94727V9.94739Z" fill="black"/>
<path d="M11.842 11.8422H13.7368V13.7369H11.842V11.8422Z" fill="black"/>
<path d="M13.7368 13.7368H15.6316V15.6316H13.7368V13.7368Z" fill="black"/>
<path d="M13.7368 11.8422H15.6316V13.7369H13.7368V11.8422Z" fill="black"/>
<path d="M13.7368 9.94739H15.6316V11.8421H13.7368V9.94739Z" fill="black"/>
<path d="M9.94727 13.7368H11.842V15.6316H9.94727V13.7368Z" fill="black"/>
<path fill-rule="evenodd" clip-rule="evenodd" d="M11.842 0.473684C11.842 0.212076 12.0541 0 12.3157 0H16.1052C16.4178 0 16.8763 0.0898962 17.2701 0.373484C17.6882 0.674461 17.9999 1.17193 17.9999 1.89474V5.68421C17.9999 5.94582 17.7879 6.15789 17.5263 6.15789C17.2646 6.15789 17.0526 5.94582 17.0526 5.68421V1.89474C17.0526 1.4807 16.8907 1.26764 16.7166 1.14231C16.5183 0.999577 16.2662 0.947368 16.1052 0.947368H12.3157C12.0541 0.947368 11.842 0.735293 11.842 0.473684Z" fill="black"/>
<path fill-rule="evenodd" clip-rule="evenodd" d="M6.15796 0.473684C6.15796 0.212076 5.94588 0 5.68427 0H1.8948C1.58216 0 1.12374 0.0898962 0.729867 0.373484C0.311843 0.674461 6.44922e-05 1.17193 6.44922e-05 1.89474V5.68421C6.44922e-05 5.94582 0.21214 6.15789 0.473749 6.15789C0.735357 6.15789 0.947433 5.94582 0.947433 5.68421V1.89474C0.947433 1.4807 1.10934 1.26764 1.28342 1.14231C1.48165 0.999577 1.73376 0.947368 1.8948 0.947368H5.68427C5.94588 0.947368 6.15796 0.735293 6.15796 0.473684Z" fill="black"/>
<path fill-rule="evenodd" clip-rule="evenodd" d="M6.15796 17.5263C6.15796 17.7879 5.94588 18 5.68427 18H1.8948C1.58216 18 1.12374 17.9101 0.729867 17.6265C0.311843 17.3255 6.44922e-05 16.8281 6.44922e-05 16.1053V12.3158C6.44922e-05 12.0542 0.21214 11.8421 0.473749 11.8421C0.735357 11.8421 0.947433 12.0542 0.947433 12.3158V16.1053C0.947433 16.5193 1.10934 16.7324 1.28342 16.8577C1.48165 17.0004 1.73376 17.0526 1.8948 17.0526H5.68427C5.94588 17.0526 6.15796 17.2647 6.15796 17.5263Z" fill="black"/>
<path fill-rule="evenodd" clip-rule="evenodd" d="M11.842 17.5263C11.842 17.7879 12.0541 18 12.3157 18H16.1052C16.4178 18 16.8763 17.9101 17.2701 17.6265C17.6882 17.3255 17.9999 16.8281 17.9999 16.1053V12.3158C17.9999 12.0542 17.7879 11.8421 17.5263 11.8421C17.2646 11.8421 17.0526 12.0542 17.0526 12.3158V16.1053C17.0526 16.5193 16.8907 16.7324 16.7166 16.8577C16.5183 17.0004 16.2662 17.0526 16.1052 17.0526H12.3157C12.0541 17.0526 11.842 17.2647 11.842 17.5263Z" fill="black"/>
</svg>
