<svg width="18" height="18" viewBox="0 0 18 18" fill="none" xmlns="http://www.w3.org/2000/svg">
<path fill-rule="evenodd" clip-rule="evenodd" d="M3.4019 10.9808V14.5981H7.01913V10.9808H3.4019ZM2.84209 9.94736C2.58048 9.94736 2.36841 10.1594 2.36841 10.421V15.1579C2.36841 15.4195 2.58048 15.6316 2.84209 15.6316H7.57893C7.84054 15.6316 8.05262 15.4195 8.05262 15.1579V10.421C8.05262 10.1594 7.84054 9.94736 7.57893 9.94736H2.84209Z" fill="black"/>
<path fill-rule="evenodd" clip-rule="evenodd" d="M3.4019 3.4019V7.01913H7.01913V3.4019H3.4019ZM2.84209 2.36841C2.58048 2.36841 2.36841 2.58048 2.36841 2.84209V7.57893C2.36841 7.84054 2.58048 8.05262 2.84209 8.05262H7.57893C7.84054 8.05262 8.05262 7.84054 8.05262 7.57893V2.84209C8.05262 2.58048 7.84054 2.36841 7.57893 2.36841H2.84209Z" fill="black"/>
<path fill-rule="evenodd" clip-rule="evenodd" d="M10.9808 3.4019V7.01913H14.5981V3.4019H10.9808ZM10.421 2.36841C10.1594 2.36841 9.94736 2.58048 9.94736 2.84209V7.57893C9.94736 7.84054 10.1594 8.05262 10.421 8.05262H15.1579C15.4195 8.05262 15.6316 7.84054 15.6316 7.57893V2.84209C15.6316 2.58048 15.4195 2.36841 15.1579 2.36841H10.421Z" fill="black"/>
<path d="M9.94736 9.94736H11.8421V11.8421H9.94736V9.94736Z" fill="black"/>
<path d="M11.8421 11.8421H13.7368V13.7368H11.8421V11.8421Z" fill="black"/>
<path d="M13.7368 13.7368H15.6316V15.6316H13.7368V13.7368Z" fill="black"/>
<path d="M13.7368 11.8421H15.6316V13.7368H13.7368V11.8421Z" fill="black"/>
<path d="M13.7368 9.94736H15.6316V11.8421H13.7368V9.94736Z" fill="black"/>
<path d="M9.94736 13.7368H11.8421V15.6316H9.94736V13.7368Z" fill="black"/>
<path fill-rule="evenodd" clip-rule="evenodd" d="M11.8421 0.473684C11.8421 0.212076 12.0542 0 12.3158 0H16.1053C16.4179 0 16.8763 0.0898962 17.2702 0.373484C17.6882 0.674461 18 1.17193 18 1.89474V5.68421C18 5.94582 17.7879 6.15789 17.5263 6.15789C17.2647 6.15789 17.0526 5.94582 17.0526 5.68421V1.89474C17.0526 1.4807 16.8907 1.26764 16.7166 1.14231C16.5184 0.999577 16.2663 0.947368 16.1053 0.947368H12.3158C12.0542 0.947368 11.8421 0.735293 11.8421 0.473684Z" fill="black"/>
<path fill-rule="evenodd" clip-rule="evenodd" d="M6.1579 0.473684C6.1579 0.212076 5.94582 0 5.68421 0H1.89474C1.5821 0 1.12368 0.0898962 0.729806 0.373484C0.311782 0.674461 3.33786e-06 1.17193 3.33786e-06 1.89474V5.68421C3.33786e-06 5.94582 0.212079 6.15789 0.473688 6.15789C0.735296 6.15789 0.947372 5.94582 0.947372 5.68421V1.89474C0.947372 1.4807 1.10928 1.26764 1.28336 1.14231C1.48159 0.999577 1.7337 0.947368 1.89474 0.947368H5.68421C5.94582 0.947368 6.1579 0.735293 6.1579 0.473684Z" fill="black"/>
<path fill-rule="evenodd" clip-rule="evenodd" d="M6.1579 17.5263C6.1579 17.7879 5.94582 18 5.68421 18H1.89474C1.5821 18 1.12368 17.9101 0.729806 17.6265C0.311782 17.3255 3.33786e-06 16.8281 3.33786e-06 16.1053V12.3158C3.33786e-06 12.0542 0.212079 11.8421 0.473688 11.8421C0.735296 11.8421 0.947372 12.0542 0.947372 12.3158V16.1053C0.947372 16.5193 1.10928 16.7324 1.28336 16.8577C1.48159 17.0004 1.7337 17.0526 1.89474 17.0526H5.68421C5.94582 17.0526 6.1579 17.2647 6.1579 17.5263Z" fill="black"/>
<path fill-rule="evenodd" clip-rule="evenodd" d="M11.8421 17.5263C11.8421 17.7879 12.0542 18 12.3158 18H16.1053C16.4179 18 16.8763 17.9101 17.2702 17.6265C17.6882 17.3255 18 16.8281 18 16.1053V12.3158C18 12.0542 17.7879 11.8421 17.5263 11.8421C17.2647 11.8421 17.0526 12.0542 17.0526 12.3158V16.1053C17.0526 16.5193 16.8907 16.7324 16.7166 16.8577C16.5184 17.0004 16.2663 17.0526 16.1053 17.0526H12.3158C12.0542 17.0526 11.8421 17.2647 11.8421 17.5263Z" fill="black"/>
</svg>
