<svg width="24" height="24" viewBox="0 0 24 24" fill="none" xmlns="http://www.w3.org/2000/svg">
<g clip-path="url(#clip0_168_150)">
<path d="M12.94 12L18.4666 6.47329C18.5759 6.34576 18.6329 6.18171 18.6264 6.01393C18.62 5.84614 18.5504 5.68698 18.4317 5.56825C18.313 5.44952 18.1538 5.37997 17.986 5.37349C17.8182 5.36701 17.6542 5.42408 17.5266 5.53329L12 11.06L6.47331 5.52663C6.34777 5.40109 6.17751 5.33057 5.99997 5.33057C5.82244 5.33057 5.65217 5.40109 5.52664 5.52663C5.4011 5.65216 5.33058 5.82243 5.33058 5.99996C5.33058 6.1775 5.4011 6.34776 5.52664 6.47329L11.06 12L5.52664 17.5266C5.45685 17.5864 5.40017 17.6599 5.36016 17.7426C5.32014 17.8254 5.29765 17.9154 5.29411 18.0073C5.29056 18.0991 5.30603 18.1906 5.33955 18.2762C5.37306 18.3617 5.4239 18.4394 5.48887 18.5044C5.55384 18.5694 5.63154 18.6202 5.71709 18.6537C5.80264 18.6872 5.89419 18.7027 5.98601 18.6992C6.07782 18.6956 6.16791 18.6731 6.25062 18.6331C6.33333 18.5931 6.40687 18.5364 6.46664 18.4666L12 12.94L17.5266 18.4666C17.6542 18.5758 17.8182 18.6329 17.986 18.6264C18.1538 18.62 18.313 18.5504 18.4317 18.4317C18.5504 18.3129 18.62 18.1538 18.6264 17.986C18.6329 17.8182 18.5759 17.6542 18.4666 17.5266L12.94 12Z" fill="black"/>
</g>
<defs>
<clipPath id="clip0_168_150">
<rect width="24" height="24" fill="white"/>
</clipPath>
</defs>
</svg>
