<svg width="19" height="21" viewBox="0 0 19 21" fill="none" xmlns="http://www.w3.org/2000/svg">
<path d="M15.5686 15.4638C15.1133 14.6796 14.4365 12.4607 14.4365 9.5625C14.4365 7.82202 13.7451 6.15282 12.5144 4.92211C11.2837 3.6914 9.61453 3 7.87405 3C6.13357 3 4.46437 3.6914 3.23366 4.92211C2.00295 6.15282 1.31155 7.82202 1.31155 9.5625C1.31155 12.4615 0.633971 14.6796 0.178698 15.4638C0.0624352 15.6632 0.000800047 15.8897 7.73634e-06 16.1205C-0.000784574 16.3513 0.0592941 16.5782 0.174185 16.7784C0.289076 16.9785 0.454716 17.1449 0.654401 17.2606C0.854086 17.3763 1.08076 17.4373 1.31155 17.4375H4.65924C4.81065 18.1784 5.2133 18.8442 5.7991 19.3224C6.38489 19.8006 7.11787 20.0618 7.87405 20.0618C8.63023 20.0618 9.36321 19.8006 9.949 19.3224C10.5348 18.8442 10.9374 18.1784 11.0889 17.4375H14.4365C14.6673 17.4372 14.8938 17.3761 15.0934 17.2603C15.293 17.1445 15.4585 16.9782 15.5733 16.778C15.6881 16.5779 15.7481 16.351 15.7473 16.1203C15.7464 15.8896 15.6848 15.6631 15.5686 15.4638ZM7.87405 18.75C7.46703 18.7499 7.07005 18.6236 6.73775 18.3886C6.40545 18.1535 6.15418 17.8212 6.0185 17.4375H9.7296C9.59392 17.8212 9.34264 18.1535 9.01035 18.3886C8.67805 18.6236 8.28107 18.7499 7.87405 18.75ZM1.31155 16.125C1.94319 15.0389 2.62405 12.5222 2.62405 9.5625C2.62405 8.17011 3.17717 6.83476 4.16174 5.85019C5.1463 4.86562 6.48166 4.3125 7.87405 4.3125C9.26644 4.3125 10.6018 4.86562 11.5864 5.85019C12.5709 6.83476 13.124 8.17011 13.124 9.5625C13.124 12.5197 13.8033 15.0364 14.4365 16.125H1.31155Z" fill="black"/>
<circle cx="8" cy="3" r="1" fill="black"/>
<circle cx="16" cy="3" r="3" fill="#FF4732"/>
</svg>
