<svg width="116" height="40" viewBox="0 0 116 40" fill="none" xmlns="http://www.w3.org/2000/svg">
<path d="M27.9742 16.33L22.9153 9.6292C22.8372 9.52575 22.7146 9.46466 22.5845 9.46466H6.52312C4.19486 9.48115 2.63904 10.8803 2.63904 12.8814V16.9353H27.9305C28.1364 16.9353 28.2541 16.7014 28.1304 16.5376L27.9739 16.33H27.9742Z" fill="white"/>
<path d="M115.749 9.46466H104.868V16.9353H110.423C110.887 16.9353 111.112 16.8187 111.372 16.4559L115.902 9.93167L115.955 9.85446C116.07 9.68954 115.951 9.46466 115.749 9.46466Z" fill="white"/>
<path d="M85.113 19.5144V12.881C85.113 12.881 85.1013 11.6123 84.0878 10.6213C83.438 9.98602 82.3766 9.46466 80.6424 9.46466H60.0825C59.9098 9.46466 59.7616 9.56886 59.6986 9.71766C59.688 9.74239 59.6797 9.76825 59.6744 9.79524C59.6692 9.82223 59.6661 9.84996 59.6661 9.87882V10.1378V10.4691V15.9248V16.2618V16.9349H76.4023C76.4306 16.9349 76.4573 16.9398 76.483 16.9484C76.5022 16.9548 76.5203 16.9638 76.5373 16.9743C76.5399 16.9758 76.5426 16.9777 76.5452 16.9795C76.5905 17.0106 76.6248 17.0564 76.6414 17.1096C76.6463 17.1253 76.6497 17.1415 76.6512 17.1579C76.6519 17.1662 76.6523 17.1748 76.6523 17.1834V18.107V22.2377V22.8689C76.6523 23.0061 76.5403 23.1174 76.4023 23.1174H68.0559C67.9178 23.1174 67.8058 23.0061 67.8058 22.8689V22.4304V19.8367V18.8277C67.8058 18.7659 67.7919 18.7074 67.7674 18.6545C67.7013 18.5121 67.5569 18.4132 67.3891 18.4132H59.6665V38.5362V39.4563V39.583C59.6665 39.6115 59.6695 39.6396 59.6748 39.6666C59.6801 39.6936 59.6884 39.7194 59.699 39.7442C59.7393 39.839 59.8144 39.9155 59.9079 39.9586C59.9611 39.9833 60.0203 39.9972 60.0829 39.9972H67.3887C67.4513 39.9972 67.5105 39.9829 67.5637 39.9586C67.6572 39.9155 67.7323 39.839 67.7726 39.7442C67.7832 39.7194 67.7915 39.6936 67.7968 39.6666C67.8021 39.6396 67.8051 39.6119 67.8051 39.583V39.4563V38.2828V30.4415H80.923L80.9245 30.4411C80.9562 30.4418 80.9883 30.4418 81.0203 30.4411C81.8188 30.4314 82.6335 30.1259 83.3237 29.6379C83.3788 29.5989 83.4334 29.5588 83.487 29.5172C83.5406 29.476 83.5934 29.4332 83.645 29.3898C83.7227 29.3245 83.7982 29.2571 83.8713 29.187C84.6272 28.4659 85.1307 27.5131 85.1134 26.545V19.514L85.113 19.5144Z" fill="white"/>
<path d="M56.3359 12.9823C56.2374 11.838 55.6506 10.8752 54.777 10.2459C54.7544 10.2297 54.7318 10.2136 54.7092 10.1979C54.6752 10.1746 54.6409 10.1514 54.6062 10.1293C54.5979 10.124 54.5896 10.1188 54.5817 10.1139C54.5021 10.0633 54.4199 10.0153 54.3361 9.97037C53.7278 9.64241 53.0176 9.45763 52.2553 9.45538H34.7339C33.7367 9.45838 32.8281 9.77322 32.1209 10.3137C32.0866 10.3399 32.0526 10.3665 32.0194 10.3939C31.9711 10.4333 31.924 10.4737 31.878 10.5153C31.8357 10.5532 31.7946 10.5922 31.7543 10.6319C31.7535 10.6327 31.7531 10.633 31.7524 10.6338C31.1357 11.2425 30.7333 12.0524 30.6533 12.9823C30.6514 13.0059 30.6507 13.0299 30.6503 13.0535C30.6503 13.0547 30.6503 13.0554 30.6503 13.0565V16.9373H48.6907C48.7254 16.9373 48.7582 16.9444 48.788 16.9568C48.7955 16.9598 48.8027 16.9635 48.8099 16.9673C48.8212 16.9733 48.8314 16.9804 48.8415 16.9879C48.9019 17.0332 48.9407 17.1048 48.9407 17.1858V32.3628C48.9407 32.4314 48.9128 32.4936 48.8676 32.5386C48.8223 32.5836 48.7597 32.6113 48.6907 32.6113H38.277C38.234 32.6113 38.1933 32.6005 38.1579 32.5813C38.1552 32.5798 38.1529 32.5783 38.1507 32.5768C38.1322 32.566 38.1152 32.5532 38.1005 32.5386C38.0741 32.5124 38.0541 32.4805 38.0417 32.4453C38.0326 32.4194 38.0273 32.3921 38.0273 32.3632V18.8297C38.0273 18.7678 38.0134 18.7094 37.9889 18.6565C37.9681 18.6119 37.9398 18.5711 37.9051 18.5366C37.8957 18.5272 37.8859 18.5182 37.8757 18.51C37.8037 18.4507 37.7113 18.4155 37.6106 18.4155H30.6318V35.7863C30.6288 36.0809 30.656 36.3665 30.7106 36.6412C30.7133 36.6555 30.7163 36.6697 30.7193 36.684C30.7306 36.7379 30.7431 36.7915 30.7563 36.8444C30.7608 36.862 30.7653 36.88 30.7702 36.8976C30.7834 36.9467 30.7974 36.9951 30.8121 37.043C30.8185 37.064 30.8253 37.0854 30.8321 37.1064C30.857 37.1828 30.8841 37.2582 30.9132 37.3324C30.963 37.4591 31.0184 37.582 31.0799 37.7019C31.095 37.7312 31.1101 37.76 31.1259 37.7889C31.1444 37.8226 31.1633 37.8564 31.1825 37.8894C31.1964 37.9137 31.2108 37.9377 31.2255 37.9617C31.3036 38.0899 31.388 38.2132 31.4789 38.3312C31.5084 38.3695 31.5382 38.4073 31.5691 38.4444C32.3702 39.4144 33.6009 40.0111 34.9251 39.9939H52.0437C54.3448 40.0239 56.363 38.2001 56.337 35.7871L56.3385 22.9443L56.3393 15.766V13.0577C56.3393 13.0329 56.3385 13.0082 56.3366 12.9834L56.3359 12.9823Z" fill="white"/>
<path d="M103.382 9.46466H87.6698C87.62 9.46466 87.5725 9.47366 87.528 9.48977C87.5088 9.49652 87.4903 9.50439 87.4726 9.51413L87.4711 9.51488C87.3409 9.58497 87.2531 9.72178 87.2531 9.8792V16.5211C87.2531 16.7498 87.4397 16.9353 87.6698 16.9353H94.9926C95.0239 16.9353 95.0537 16.9413 95.0816 16.9518C95.1529 16.9788 95.2087 17.0369 95.2313 17.11C95.2362 17.1257 95.2396 17.1418 95.2411 17.1583C95.2419 17.1666 95.2422 17.1752 95.2422 17.1838V38.5264V39.3529V39.5826C95.2422 39.6111 95.2453 39.6392 95.2505 39.6662C95.2558 39.6932 95.2641 39.7191 95.2747 39.7438C95.315 39.8386 95.3901 39.9151 95.4836 39.9582C95.5368 39.9829 95.596 39.9968 95.6586 39.9968H102.964C103.194 39.9968 103.381 39.8113 103.381 39.5826V9.46466H103.382Z" fill="white"/>
<path d="M28.161 34.3765C28.1617 34.2895 28.161 34.2037 28.1579 34.119C28.1538 33.9897 28.1455 33.863 28.1342 33.7404C28.1281 33.6767 28.121 33.6134 28.1127 33.55C28.1112 33.5373 28.1093 33.5242 28.1078 33.5114C28.0999 33.4514 28.0908 33.3918 28.0806 33.3326C28.078 33.3176 28.0753 33.303 28.0727 33.288C28.0633 33.2341 28.0531 33.1805 28.0421 33.1269C28.0395 33.1137 28.0369 33.1002 28.0339 33.0871C28.0229 33.0347 28.0108 32.9826 27.9984 32.9308C27.9939 32.9113 27.989 32.8922 27.9844 32.8731C27.9724 32.8248 27.9595 32.7768 27.9463 32.7288C27.9452 32.7243 27.9437 32.7194 27.9422 32.7149C27.9354 32.6913 27.9286 32.6677 27.9215 32.6445C27.9105 32.607 27.8992 32.5699 27.8871 32.5328C27.8796 32.5092 27.872 32.4856 27.8645 32.462C27.8468 32.4076 27.8279 32.3536 27.8087 32.3C27.8015 32.2805 27.794 32.2611 27.7868 32.2416C27.7721 32.2018 27.757 32.1625 27.7412 32.1235C27.7321 32.101 27.7231 32.0785 27.714 32.0564C27.6955 32.0111 27.6763 31.9661 27.6563 31.9211C27.6484 31.9035 27.6408 31.8859 27.6329 31.8683C27.611 31.8199 27.5884 31.7716 27.5654 31.724C27.556 31.7041 27.5462 31.6846 27.5364 31.6647C27.5156 31.6231 27.4945 31.5815 27.4726 31.5403C27.4647 31.5257 27.4572 31.5107 27.4496 31.4961C27.4209 31.4425 27.3915 31.3893 27.3614 31.3364C27.3523 31.3207 27.3433 31.3049 27.3338 31.2896C27.3093 31.248 27.2848 31.2067 27.2595 31.1655C27.2505 31.1505 27.2414 31.1355 27.232 31.1209C27.1988 31.068 27.1652 31.0156 27.1305 30.9638C27.1237 30.9537 27.117 30.944 27.1102 30.9339C27.0804 30.89 27.0502 30.8465 27.0196 30.8034C27.0095 30.7892 26.9993 30.7749 26.9891 30.7607C26.9518 30.709 26.9137 30.658 26.8748 30.6074C26.8352 30.5561 26.7948 30.5055 26.7545 30.4549C26.7288 30.4223 26.7028 30.39 26.6768 30.3578C26.6055 30.2697 26.5331 30.1828 26.4603 30.0965C26.3984 30.0235 26.3362 29.9511 26.2732 29.8792C26.2185 29.8166 26.1635 29.7547 26.1084 29.6933C26.0462 29.6243 25.9839 29.5557 25.9209 29.4875C25.8323 29.3915 25.7433 29.296 25.6535 29.2011C25.5928 29.137 25.5313 29.0729 25.4702 29.0092C25.3492 28.8833 25.2266 28.7581 25.1036 28.6329C25.0395 28.5677 24.9754 28.5025 24.9109 28.4373C24.7853 28.3102 24.6589 28.1828 24.5322 28.0542C24.3421 27.8616 24.1513 27.6667 23.96 27.4673C23.3577 26.8395 22.4672 25.9437 21.4749 24.9572C21.1995 24.6836 20.9163 24.4029 20.6289 24.1191C20.6281 24.1184 20.6278 24.118 20.627 24.1173C20.5127 24.0044 20.3977 23.8909 20.2826 23.7773C20.2238 23.7192 20.165 23.6611 20.1058 23.603C19.9903 23.4895 19.8749 23.3755 19.7595 23.2619C17.6613 21.1968 15.5677 19.1634 14.968 18.5814C14.9367 18.551 14.9023 18.5251 14.8654 18.5026C14.7741 18.4468 14.6689 18.4164 14.5602 18.4164H3.6393C3.56538 18.4164 3.52804 18.5049 3.57971 18.5574L4.34499 19.331L4.5347 19.5229L8.71034 23.7451L17.0612 32.1898C17.1955 32.3255 17.1299 32.5414 16.9673 32.5984C16.9413 32.6074 16.9134 32.6126 16.8828 32.6126H0.416395C0.277219 32.6126 0.154639 32.6805 0.0788283 32.7847C0.0528037 32.8206 0.0316822 32.8604 0.0184813 32.9038C0.0143324 32.917 0.0109379 32.9301 0.00829772 32.9436C0.00264018 32.9706 0 32.9983 0 33.0272V38.9978V39.5855C0 39.5998 0.000754338 39.614 0.00226301 39.6279C0.0116922 39.7186 0.0505407 39.8007 0.109379 39.8644C0.118431 39.8741 0.12786 39.8835 0.137667 39.8925C0.179155 39.93 0.228564 39.9592 0.2825 39.9776C0.324743 39.9918 0.369626 40.0001 0.416772 40.0001H22.3691C23.9355 40.0001 25.4634 39.4049 26.5425 38.276C27.7838 36.9772 28.15 35.5687 28.1613 34.3791L28.161 34.3765Z" fill="white"/>
<path d="M113.043 2.84599V0.0774536H114.811C115.523 0.0774536 115.754 0.399287 115.754 0.82969C115.754 1.1903 115.554 1.41519 115.292 1.49662V1.50438C115.625 1.57417 115.699 1.86111 115.699 2.25273C115.699 2.38457 115.703 2.69477 115.816 2.84599H115.183C115.14 2.76844 115.112 2.62885 115.112 2.42722C115.112 2.03172 115.057 1.75254 114.627 1.75254H113.63V2.84599H113.043ZM113.63 1.31826H114.643C114.967 1.31826 115.143 1.22132 115.143 0.911117C115.143 0.624182 114.952 0.511734 114.643 0.511734H113.63V1.31826Z" fill="white"/>
<path d="M108.502 2.84599V0.0774536H110.926V0.511734H109.088V1.20969H110.852V1.64397H109.088V2.41171H110.958V2.84599H108.502Z" fill="white"/>
<path d="M103.383 2.84599V0.0774536H103.97V1.1554H105.703V0.0774536H106.289V2.84599H105.703V1.58968H103.97V2.84599H103.383Z" fill="white"/>
<path d="M99.822 2.84599V0.511734H98.7738V0.0774536H101.457V0.511734H100.409V2.84599H99.822Z" fill="white"/>
<path d="M94.5177 2.84599V0.0774536H96.9426V0.511734H95.1044V1.20969H96.8683V1.64397H95.1044V2.41171H96.9739V2.84599H94.5177Z" fill="white"/>
<path d="M92.3031 1.32611V2.84609H91.9589L91.8768 2.48548C91.6499 2.75691 91.251 2.92364 90.813 2.92364C89.6318 2.92364 89.1703 2.2412 89.1703 1.46182C89.1703 0.682441 89.6592 0 90.7973 0C91.646 0 92.1897 0.426526 92.2522 0.969376H91.6186C91.513 0.593258 91.161 0.434281 90.7817 0.434281C90.0581 0.434281 89.7804 0.872439 89.7804 1.48121C89.7804 2.21793 90.2576 2.48936 90.7504 2.48936C91.3488 2.48936 91.6226 2.21793 91.7164 1.76039H90.9264V1.32611H92.3031Z" fill="white"/>
<path d="M85.6259 2.92364C84.4448 2.92364 83.9833 2.2412 83.9833 1.46182C83.9833 0.682441 84.4448 0 85.6259 0C86.8071 0 87.2686 0.682441 87.2686 1.46182C87.2686 2.2412 86.8071 2.92364 85.6259 2.92364ZM85.6259 2.48936C86.283 2.48936 86.6585 2.07059 86.6585 1.46182C86.6585 0.853051 86.283 0.434281 85.6259 0.434281C84.9689 0.434281 84.5934 0.853051 84.5934 1.46182C84.5934 2.07059 84.9689 2.48936 85.6259 2.48936Z" fill="white"/>
<path d="M80.5783 2.84599V0.511734H79.5302V0.0774536H82.2132V0.511734H81.165V2.84599H80.5783Z" fill="white"/>
<path d="M71.6797 2.84599V0.0774536H72.3524L74.0146 2.1558H74.0224V0.0774536H74.5856V2.84599H73.9247L72.2507 0.76765H72.2429V2.84599H71.6797Z" fill="white"/>
<path d="M67.9788 2.92364C66.7977 2.92364 66.3362 2.2412 66.3362 1.46182C66.3362 0.682441 66.7977 0 67.9788 0C69.16 0 69.6215 0.682441 69.6215 1.46182C69.6215 2.2412 69.16 2.92364 67.9788 2.92364ZM67.9788 2.48936C68.6359 2.48936 69.0114 2.07059 69.0114 1.46182C69.0114 0.853051 68.6359 0.434281 67.9788 0.434281C67.3218 0.434281 66.9463 0.853051 66.9463 1.46182C66.9463 2.07059 67.3218 2.48936 67.9788 2.48936Z" fill="white"/>
<path d="M63.6926 2.84599V0.0774536H64.2793V2.84599H63.6926Z" fill="white"/>
<path d="M59.0024 0.856929C59.0024 0.240405 59.5539 0 60.2344 0C60.6646 0 61.5251 0.07755 61.5994 0.880194H60.9658C60.9462 0.666931 60.7507 0.434281 60.2618 0.434281C59.8707 0.434281 59.6125 0.554483 59.6125 0.814276C59.6125 1.4657 61.6932 0.841419 61.6932 2.02406C61.6932 2.73752 60.9462 2.92364 60.3517 2.92364C59.3466 2.92364 58.9437 2.53201 58.9359 1.95039H59.5695C59.5852 2.31487 59.8902 2.48936 60.3713 2.48936C60.7272 2.48936 61.0596 2.38467 61.0596 2.08222C61.0596 1.3959 59.0024 1.99304 59.0024 0.856929Z" fill="white"/>
<path d="M54.4608 0.856929C54.4608 0.240405 55.0122 0 55.6928 0C56.123 0 56.9834 0.07755 57.0578 0.880194H56.4242C56.4046 0.666931 56.209 0.434281 55.7202 0.434281C55.329 0.434281 55.0709 0.554483 55.0709 0.814276C55.0709 1.4657 57.1516 0.841419 57.1516 2.02406C57.1516 2.73752 56.4046 2.92364 55.8101 2.92364C54.805 2.92364 54.4021 2.53201 54.3943 1.95039H55.0279C55.0435 2.31487 55.3486 2.48936 55.8297 2.48936C56.1856 2.48936 56.518 2.38467 56.518 2.08222C56.518 1.3959 54.4608 1.99304 54.4608 0.856929Z" fill="white"/>
<path d="M50.6321 1.72539H51.5942L51.1171 0.558264L50.6321 1.72539ZM49.5331 2.84599L50.7768 0.0774536H51.473L52.7167 2.84599H52.0636L51.7702 2.15967H50.4561L50.1667 2.84599H49.5331Z" fill="white"/>
<path d="M45.8989 0.511734V1.35703H46.8415C47.1739 1.35703 47.3539 1.26785 47.3539 0.93826C47.3539 0.597039 47.1114 0.511734 46.8845 0.511734H45.8989ZM45.3123 2.84599V0.0774536H47.0331C47.7176 0.0774536 47.9405 0.492347 47.9405 0.93826C47.9405 1.36091 47.6707 1.79131 47.041 1.79131H45.8989V2.84599H45.3123Z" fill="white"/>
<path d="M37.4626 2.84599V0.0774536H39.2305C39.9423 0.0774536 40.173 0.399287 40.173 0.82969C40.173 1.1903 39.9736 1.41519 39.7115 1.49662V1.50438C40.044 1.57417 40.1183 1.86111 40.1183 2.25273C40.1183 2.38457 40.1222 2.69477 40.2356 2.84599H39.602C39.559 2.76844 39.5316 2.62885 39.5316 2.42722C39.5316 2.03172 39.4769 1.75254 39.0466 1.75254H38.0493V2.84599H37.4626ZM38.0493 1.31826H39.0623C39.3869 1.31826 39.5629 1.22132 39.5629 0.911117C39.5629 0.624182 39.3713 0.511734 39.0623 0.511734H38.0493V1.31826Z" fill="white"/>
<path d="M32.5385 1.6556V0.0774536H33.1251V1.64009C33.1251 2.02396 33.1408 2.48926 33.9034 2.48926C34.67 2.48926 34.6857 2.02396 34.6857 1.64009V0.0774536H35.2723V1.6556C35.2723 2.11314 35.2567 2.92354 33.9034 2.92354C32.5541 2.92354 32.5385 2.11314 32.5385 1.6556Z" fill="white"/>
<path d="M28.8612 2.92364C27.68 2.92364 27.2185 2.2412 27.2185 1.46182C27.2185 0.682441 27.68 0 28.8612 0C30.0423 0 30.5038 0.682441 30.5038 1.46182C30.5038 2.2412 30.0423 2.92364 28.8612 2.92364ZM28.8612 2.48936C29.5182 2.48936 29.8937 2.07059 29.8937 1.46182C29.8937 0.853051 29.5182 0.434281 28.8612 0.434281C28.2041 0.434281 27.8286 0.853051 27.8286 1.46182C27.8286 2.07059 28.2041 2.48936 28.8612 2.48936Z" fill="white"/>
<path d="M20.796 2.84599V0.511734H19.7478V0.0774536H22.4308V0.511734H21.3826V2.84599H20.796Z" fill="white"/>
<path d="M15.1093 1.6556V0.0774536H15.6959V1.64009C15.6959 2.02396 15.7116 2.48926 16.4742 2.48926C17.2408 2.48926 17.2565 2.02396 17.2565 1.64009V0.0774536H17.8431V1.6556C17.8431 2.11314 17.8275 2.92354 16.4742 2.92354C15.1249 2.92354 15.1093 2.11314 15.1093 1.6556Z" fill="white"/>
<path d="M11.4317 2.92364C10.2506 2.92364 9.78906 2.2412 9.78906 1.46182C9.78906 0.682441 10.2506 0 11.4317 0C12.6129 0 13.0744 0.682441 13.0744 1.46182C13.0744 2.2412 12.6129 2.92364 11.4317 2.92364ZM11.4317 2.48936C12.0888 2.48936 12.4643 2.07059 12.4643 1.46182C12.4643 0.853051 12.0888 0.434281 11.4317 0.434281C10.7747 0.434281 10.3992 0.853051 10.3992 1.46182C10.3992 2.07059 10.7747 2.48936 11.4317 2.48936Z" fill="white"/>
<path d="M4.82715 2.84599V0.0774536H5.41382V1.1554H7.14644V0.0774536H7.73311V2.84599H7.14644V1.58968H5.41382V2.84599H4.82715Z" fill="white"/>
<path d="M0.136923 0.856929C0.136923 0.240405 0.688391 0 1.36892 0C1.79915 0 2.65959 0.07755 2.7339 0.880194H2.1003C2.08075 0.666931 1.88519 0.434281 1.3963 0.434281C1.00519 0.434281 0.747057 0.554483 0.747057 0.814276C0.747057 1.4657 2.82777 0.841419 2.82777 2.02406C2.82777 2.73752 2.08075 2.92364 1.48626 2.92364C0.481102 2.92364 0.0782568 2.53201 0.0704346 1.95039H0.704035C0.719679 2.31487 1.02475 2.48936 1.50581 2.48936C1.86172 2.48936 2.19417 2.38467 2.19417 2.08222C2.19417 1.3959 0.136923 1.99304 0.136923 0.856929Z" fill="white"/>
</svg>
