<svg width="18" height="18" viewBox="0 0 18 18" fill="none" xmlns="http://www.w3.org/2000/svg">
<path fill-rule="evenodd" clip-rule="evenodd" d="M14.6665 15.9925C16.7003 14.3424 18 11.823 18 9C18 4.02944 13.9706 0 9 0C4.02944 0 0 4.02944 0 9C0 13.9706 4.02944 18 9 18C10.5621 18 12.0313 17.602 13.3117 16.9019L13.2625 16.6366C12.4581 12.2924 11.0393 9.72192 9.5489 8.25124C8.5435 8.41661 7.94356 9.09947 7.5893 10.0395C7.22046 11.0182 7.17077 12.1704 7.24627 12.9254L7.32089 13.6716L5.82834 13.8209L5.75371 13.0746C5.66254 12.163 5.71285 10.7651 6.18567 9.51051C6.51627 8.6333 7.077 7.7796 7.96738 7.25014C6.68166 7.26118 5.72398 7.92442 5.01752 8.8348C4.29462 9.76638 3.88435 10.9025 3.73544 11.6471L3.58835 12.3825L2.11748 12.0883L2.26456 11.3529C2.44898 10.4308 2.93872 9.06695 3.83248 7.9152C4.27464 7.3454 4.82707 6.81514 5.4981 6.42199C4.83008 6.40895 4.23308 6.52609 3.76334 6.70225L3.0611 6.96559L2.53441 5.5611L3.23666 5.29775C4.56932 4.798 6.53911 4.6807 8.51494 5.66949C8.79646 5.06544 9.26445 4.38685 9.95319 3.82947C10.9172 3.04936 12.287 2.53001 14.093 2.75576L14.8372 2.84879L14.6512 4.33721L13.907 4.24418C12.513 4.06994 11.5495 4.46726 10.8968 4.99548C10.5773 5.25408 10.3259 5.54967 10.1359 5.83722C11.1561 5.47862 12.5867 5.37751 13.95 6.39998L14.55 6.84998L13.65 8.04998L13.05 7.59998C12.2101 6.97007 11.3112 7.01792 10.6587 7.23874C12.3591 8.94405 13.8227 11.7156 14.6665 15.9925Z" fill="#BDBDBD"/>
</svg>
